<svg width="58" height="46" viewBox="0 0 58 46" fill="none" xmlns="http://www.w3.org/2000/svg">
<path fill-rule="evenodd" clip-rule="evenodd" d="M0 23.5818C0 34.0167 6.87 42.8304 16.41 45.955C17.61 46.1614 18.06 45.4539 18.06 44.8349C18.06 44.2748 18.03 42.4176 18.03 40.4426C12 41.5333 10.44 38.9984 9.96002 37.6719C9.69002 36.994 8.52 34.9011 7.5 34.341C6.66 33.8988 5.46002 32.8081 7.47002 32.7786C9.36002 32.7492 10.71 34.4883 11.16 35.1958C13.32 38.7625 16.77 37.7602 18.15 37.1412C18.36 35.6084 18.99 34.5768 19.68 33.9873C14.34 33.3978 8.75999 31.3638 8.75999 22.3438C8.75999 19.7793 9.69002 17.6568 11.22 16.0061C10.98 15.4166 10.14 12.9994 11.46 9.75695C11.46 9.75695 13.47 9.13795 18.06 12.1741C19.98 11.6435 22.02 11.3782 24.06 11.3782C26.1 11.3782 28.14 11.6435 30.06 12.1741C34.65 9.10847 36.66 9.75695 36.66 9.75695C37.98 12.9994 37.14 15.4166 36.9 16.0061C38.43 17.6568 39.36 19.7498 39.36 22.3438C39.36 31.3933 33.75 33.3978 28.41 33.9873C29.28 34.7242 30.03 36.1391 30.03 38.3499C30.03 41.5039 30 44.039 30 44.8349C30 45.4539 30.45 46.1908 31.65 45.955C41.13 42.8304 48 33.9872 48 23.5818C48 10.5528 37.26 0 24 0C10.74 0 0 10.5528 0 23.5818Z" fill="white"/>
</svg>
